<svg xmlns="http://www.w3.org/2000/svg" width="141.732" height="141.732"><g stroke-width=".177"><path fill="#77FFBD" stroke="#77FFBD" d="M42.131 21.023a29 29 0 0 1 8.724 1.012c.569.164 1.151.316 1.695.563 1.961.873 3.638 2.322 4.878 4.074 1.329 1.885 2.138 4.099 2.524 6.371.24 1.329.316 2.682.329 4.036.032 5.194.025 10.394.019 15.588-.006 1.48.025 2.961.171 4.441.133 1.411.367 2.815.803 4.163.335 1.025.791 2.018 1.436 2.885.164.228.361.437.531.664-2.126-.487-4.188-1.373-5.884-2.758a10.27 10.27 0 0 1-3.252-4.7c-.437-1.303-.626-2.689-.614-4.062 0-4.84.006-9.679 0-14.525-.019-2.619-.519-5.251-1.563-7.655a18.937 18.937 0 0 0-3.41-5.232c-1.765-1.936-3.903-3.524-6.219-4.738l-.168-.127z"/><path fill="#2FCBBE" stroke="#2FCBBE" d="M38.594 21.384c.405-.051.816-.158 1.227-.152.848.291 1.658.696 2.442 1.126a21.539 21.539 0 0 1 5.023 3.808c1.594 1.639 2.897 3.568 3.758 5.694.955 2.322 1.379 4.84 1.341 7.345 0 4.84-.006 9.679.006 14.519.025 1.512.285 3.024.829 4.441.228.633.557 1.221.867 1.816-1.151-.221-2.277-.645-3.252-1.303-1.449-.955-2.531-2.404-3.214-3.986-.544-1.24-.892-2.562-1.113-3.897-.272-1.658-.373-3.334-.373-5.017-.044-.981-.044-1.961-.057-2.942-.063-1.67-.057-3.347-.108-5.017-.095-2.353-.702-4.694-1.816-6.776-.892-1.689-2.107-3.207-3.498-4.511-1.639-1.537-3.536-2.79-5.548-3.783-.228-.12-.481-.19-.683-.361a30.49 30.49 0 0 1 4.169-1.004z"/><path fill="#77FFBD" stroke="#77FFBD" d="M32.704 22.997c.152-.089.31.019.456.07 2.113.879 4.125 2.037 5.89 3.498 1.518 1.259 2.86 2.758 3.853 4.473a14.667 14.667 0 0 1 1.98 6.965c.063 2.986.12 5.966.183 8.952.063 2.043.278 4.093.816 6.073-1.854-.399-3.498-1.544-4.688-2.999-1.449-1.778-2.277-3.986-2.657-6.225a19.518 19.518 0 0 1-.253-2.353c0-1.67.013-3.34-.139-5.004-.183-2.227-.671-4.492-1.885-6.396-1.183-1.879-2.98-3.277-4.871-4.397-.664-.405-1.366-.74-2.043-1.113 1.075-.602 2.213-1.082 3.358-1.544z"/><path fill="#2FCBBE" stroke="#2FCBBE" d="M57.219 24.661c.399.171.759.418 1.132.633a28.343 28.343 0 0 1 5.593 4.485c.12.127.108.316.139.474.557 4.58-.266 9.344-2.436 13.431a1.45 1.45 0 0 1-.266.405c-.006-1.778-.006-3.555-.013-5.333-.013-1.461.019-2.923-.133-4.378-.266-2.663-1.019-5.308-2.429-7.598-.454-.753-1.017-1.442-1.587-2.119zM28.131 25.198c1.98.924 3.941 1.993 5.555 3.486 1.272 1.17 2.24 2.676 2.727 4.34-.474 0-.936-.127-1.398-.221a17.514 17.514 0 0 1-6.092-2.796c-1.234-.905-2.372-1.986-3.163-3.302a35.897 35.897 0 0 1 2.371-1.507z"/><path fill="#77FFBD" stroke="#77FFBD" d="M22.12 29.57a33.846 33.846 0 0 1 2.733-2.208c1.177 1.809 2.834 3.258 4.675 4.359 1.974 1.177 4.156 2.024 6.428 2.372.24.051.512.013.74.095.139.443.177.917.247 1.373.051.411.108.822.12 1.24a21.172 21.172 0 0 1-7.775-1.594c-2.84-1.171-5.453-3.056-7.168-5.637z"/><path fill="#2FCBBE" stroke="#2FCBBE" d="M19.913 31.683c.443-.474.905-.93 1.373-1.366a16.23 16.23 0 0 0 2.569 2.86 7.09 7.09 0 0 1-2.733-.5c-.449-.19-.898-.418-1.265-.74-.128-.077-.008-.184.056-.254z"/><path fill="#FFF" stroke="#FFF" d="M65.304 31.303c3.024 3.581 5.086 7.997 5.732 12.653.177 1.221.234 2.461.221 3.695-.006 12.589.006 25.179-.006 37.768-1.461.019-2.929 0-4.391.006-.253.006-.493-.076-.74-.114v-.044c.013-5.593 0-11.185.006-16.771-.019-.816.044-1.632-.032-2.448-.006-.095-.013-.196 0-.291.076-.607.019-1.221.038-1.828V48.777c.013-1.151-.127-2.303-.329-3.435-.247-1.24-.595-2.499-1.335-3.549a2.169 2.169 0 0 0-.519-.557 24.489 24.489 0 0 0 1.392-7.383c.026-.848-.005-1.702-.037-2.55z"/><path fill="#77FFBD" stroke="#77FFBD" d="M19.052 32.701c1.423 1.158 3.309 1.651 5.124 1.55.304-.006.607-.089.911-.095.304.164.569.386.867.563.474.31.981.563 1.461.854-1.303.519-2.733.652-4.125.595-1.873-.114-3.783-.664-5.219-1.923.254-.557.614-1.056.981-1.544z"/><path fill="#FFF" stroke="#FFF" d="M17.616 35.321c.734.531 1.518.993 2.379 1.297 1.43.519 2.973.721 4.492.652 1.423-.076 2.853-.373 4.144-1 .082-.038.177-.082.266-.032a22.194 22.194 0 0 0 8.237 1.67c.082 1.012.051 2.031.057 3.043-5.213 0-10.426.006-15.639 0-1.069-1.797-2.429-3.461-4.182-4.631a8.88 8.88 0 0 1 .246-.999zM8.544 36.712c1.873-.715 3.967-.987 5.921-.443 1.809.487 3.378 1.639 4.574 3.056.437.512.841 1.05 1.196 1.626-1.006.006-2.012 0-3.018.006-.177 0-.354.006-.531-.032-2.897-.715-5.795-1.423-8.686-2.132-.778-.196-1.563-.361-2.328-.588.886-.62 1.866-1.1 2.872-1.493z"/><path fill="#3088D4" stroke="#3088D4" d="M10.176 41.476c.348-.266.709-.538 1.113-.721.272-.025.525.095.784.146 1.379.335 2.752.683 4.137 1.006.025.487.019.974.006 1.461-.803.335-1.588.721-2.398 1.031a3.819 3.819 0 0 0-.974-.829c-.557-.348-1.215-.474-1.835-.671-.582-.183-1.177-.335-1.746-.538.23-.353.591-.607.913-.885z"/><path fill="#FFF" stroke="#FFF" d="M63.938 41.236c.202.152.38.342.519.557.74 1.05 1.088 2.309 1.335 3.549.209 1.132.348 2.284.329 3.435v15.152c-.013.607.038 1.221-.038 1.828-.373-.493-.949-.753-1.417-1.139-.784-.633-1.385-1.461-1.828-2.366-.538-1.101-.848-2.296-1.063-3.498-.474-2.739-.373-5.523-.386-8.288v-4.074c-.013-.127.044-.24.114-.342 1.018-1.493 1.815-3.125 2.435-4.814zM17.306 42.071c1.556-.038 3.113-.006 4.675-.013h4.194a13.194 13.194 0 0 0 .462 3.688c.291 1.031.671 2.043 1.24 2.961.86 1.449 2.1 2.663 3.549 3.524.38.234.822.367 1.17.652a14.541 14.541 0 0 1-3.979 4.397c-.981.728-2.056 1.316-3.138 1.873a.59.59 0 0 0-.361.576v5.327c.006.892.43 1.759 1.12 2.322.19.158.399.291.607.424a6.543 6.543 0 0 1-2.233 2.448c-1.385.886-3.062 1.253-4.694 1.17-.114.006-.19-.082-.266-.152-.81-.81-1.329-1.866-1.683-2.942-.512-1.62-.696-3.328-.652-5.023-.011-7.08.002-14.153-.011-21.232m6.016 7.237a.567.567 0 0 0-.316.531v2.632c.025.531-.304 1.139-.86 1.234-.354.082-.493.55-.285.835.164.247.493.278.753.19.917-.285 1.506-1.259 1.506-2.189-.006-.917.006-1.841-.006-2.758-.001-.393-.463-.652-.792-.475z"/><path fill="#FFF" stroke="#FFF" d="M26.169 42.058c1.398-.006 2.79-.006 4.188 0a8.01 8.01 0 0 0 .905 3.315c.487.962 1.227 1.778 2.062 2.448.323.272.721.443 1.019.747-.405 1.499-.968 2.967-1.759 4.315-.348-.285-.791-.418-1.17-.652a10.116 10.116 0 0 1-3.549-3.524c-.569-.911-.949-1.93-1.24-2.961a13.653 13.653 0 0 1-.456-3.688z"/><path fill="#FFF" stroke="#FFF" d="M30.357 42.058c1.569-.006 3.144-.013 4.713 0 .025 2.189-.196 4.384-.734 6.51-.297-.304-.696-.474-1.019-.747-.835-.671-1.575-1.487-2.062-2.448-.518-1.025-.847-2.157-.898-3.315z"/><path fill="#3088D4" stroke="#3088D4" d="M7.272 45.708c.462-1.215 1.094-2.385 1.98-3.34.576.209 1.164.361 1.746.538.62.196 1.278.316 1.835.671.373.215.696.5.974.829-1.866.841-3.752 1.645-5.624 2.474-.481.196-.943.437-1.43.601.102-.608.317-1.191.519-1.773z"/><path fill="#FFF" stroke="#FFF" d="M96.791 44.899a15.459 15.459 0 0 1 3.878-.576c1.025-.032 2.05.051 3.075.12 4.409.367 8.813 1.31 12.824 3.207a25.54 25.54 0 0 1 7.256 5.074c1.531 1.531 2.866 3.283 3.752 5.27 1.082 2.404 1.575 5.042 1.702 7.668-3.34-.006-6.674 0-10.015 0-1.809-.006-3.612.202-5.39.512-3.366.601-6.649 1.658-9.711 3.188-2.929 1.461-5.643 3.366-7.971 5.668a31.114 31.114 0 0 0-1.714 1.828c-.5-.569-.892-1.227-1.303-1.86-2.36-3.676-4.156-7.693-5.491-11.843a61.276 61.276 0 0 1-2.784-15.247 10.237 10.237 0 0 1 0-.607c.19-.019.386-.044.576-.063 3.214-.108 6.434-.588 9.477-1.664.618-.22 1.212-.498 1.839-.675zM72.32 45.588a46.842 46.842 0 0 0 7.484 1.398c.202 3.182.519 6.358 1.075 9.496.822 4.726 2.126 9.388 4.055 13.785 1.392 3.17 3.106 6.2 5.169 8.983.12.164.247.329.367.5-2.986.013-5.966 0-8.952.006-1.828.038-3.593.69-5.156 1.613-1.468.854-2.784 1.961-3.986 3.157-.025-2.569-.006-5.137-.013-7.706V47.151c.001-.525-.037-1.044-.043-1.563z"/><path fill="#FFF" stroke="#FFF" d="M80.924 47.1c1.512.114 3.03.152 4.542.127-.19.019-.386.044-.576.063-.006.202-.013.405 0 .607a60.955 60.955 0 0 0 2.784 15.247c1.335 4.15 3.125 8.174 5.491 11.843.411.633.803 1.291 1.303 1.86-.778.93-1.531 1.892-2.202 2.897-.133 0-.272 0-.405-.006a44.908 44.908 0 0 1-5.396-8.749c-1.936-4.106-3.277-8.477-4.175-12.918A76.068 76.068 0 0 1 80.924 47.1zM38.386 47.385c.759 1.828 1.866 3.543 3.404 4.808a9.287 9.287 0 0 0 4.466 2.05c.671 1.816 1.702 3.549 3.214 4.789 1.436 1.196 3.239 1.892 5.086 2.126.19.032.424.019.538.202 1.297 1.556 3.005 2.733 4.859 3.53 1.316.569 2.701.962 4.106 1.221.512.095 1.038.183 1.556.12.171-.013.329-.101.474-.183.076.816.013 1.632.032 2.448 0 5.593.006 11.185-.006 16.771-.361-.063-.683-.228-1.019-.361-2.005-.879-3.853-2.088-5.529-3.492a25.777 25.777 0 0 1-7.111-9.66c-1.253-2.935-1.961-6.092-2.24-9.268.006-.329-.304-.62-.633-.563a.558.558 0 0 0-.474.62c.399 4.789 1.809 9.534 4.403 13.602.93 1.48 2.024 2.847 3.22 4.118-2.948.006-5.903-.259-8.787-.867-2.366-.519-4.726-1.227-6.845-2.423.006-.626.032-1.284-.272-1.847-.493-1.019-1.607-1.544-2.67-1.727-.335-.051-.772-.202-1.025.108-.278.297-.089.848.316.898.576.076 1.158.19 1.664.487.468.266.854.74.879 1.297v5.763c-.025.361.304.569.531.797 1.601 1.506 3.574 2.587 5.675 3.22 1.385.418 2.822.652 4.27.747.171.013.361-.013.487-.139.228-.234.399-.519.626-.747.247 1.379.62 2.771 1.366 3.973-1.031.392-2.132.569-3.226.658-2.55.183-5.118-.285-7.49-1.215-1.847-.715-3.619-1.664-5.175-2.897a16.135 16.135 0 0 1-3.96-4.549c-1.031-1.759-1.74-3.695-2.202-5.675-.569-2.436-.797-4.947-.829-7.446 4.669 0 9.338-.006 14.013 0a16.41 16.41 0 0 0 2.606 2.474c.247.171.474.367.747.506.354.164.797-.152.753-.538 0-.278-.247-.443-.455-.576-1.727-1.189-3.144-2.79-4.277-4.549-1.234-1.904-2.145-4.005-2.853-6.156-1.063-3.245-1.67-6.617-2.018-10.008-.082-.809-.183-1.625-.195-2.447z"/><path fill="#191A1C" stroke="#191A1C" d="M23.322 49.308c.335-.177.791.089.791.468.013.917 0 1.841.006 2.758.006.936-.588 1.911-1.506 2.189-.259.089-.595.057-.753-.19-.209-.285-.07-.753.285-.835.563-.095.892-.696.86-1.234v-2.632a.562.562 0 0 1 .317-.524z"/><path fill="#77FFBD" stroke="#77FFBD" d="M126.575 54.16c1.132.437 2.214 1 3.226 1.664.683.455 1.354.943 1.936 1.525-1.088.013-2.17.013-3.258-.006a16.808 16.808 0 0 0-1.702-2.872 3.038 3.038 0 0 1-.202-.311z"/><path fill="#2FCBBE" stroke="#2FCBBE" d="M128.966 58.462c1.234-.025 2.461 0 3.695-.006a.279.279 0 0 1 .272.127c.487.595.924 1.227 1.303 1.898.177.342.386.671.5 1.044h-4.871a23.33 23.33 0 0 0-.899-3.063z"/><path fill="#77FFBD" stroke="#77FFBD" d="M130.074 62.619c1.708.006 3.416-.006 5.124.006.228.658.418 1.322.563 1.999.044.146-.076.266-.158.367-.424.468-1.075.664-1.695.664h-3.505c-.063-.601-.089-1.202-.164-1.797-.052-.41-.127-.822-.165-1.239z"/><path fill="#2FCBBE" stroke="#2FCBBE" d="M134.964 66.611c.38-.101.721-.297 1.057-.493.171 1.265.215 2.543.19 3.821-.006.171.013.367-.095.519-.576.93-1.506 1.569-2.48 2.031a11.754 11.754 0 0 1-4.612 1.057c-3.549-.057-7.092-.044-10.641-.032-3.524.006-7.054.032-10.578.025-.791 0-1.588-.006-2.379.006a21.844 21.844 0 0 0-6.219 1.057c-.506.152-.987.367-1.487.525.468-.481.993-.898 1.512-1.316 2.67-2.138 5.706-3.802 8.914-4.973 3.302-1.196 6.782-1.923 10.299-2.075 4.865-.013 9.724 0 14.589-.006.639-.007 1.304.056 1.93-.146z"/><path fill="#77FFBD" stroke="#77FFBD" d="M133.104 73.886a9.336 9.336 0 0 0 2.929-1.639c-.228 2.037-.721 4.043-1.411 5.972-.259.848-.93 1.499-1.651 1.98-1.012.664-2.189 1.038-3.359 1.316-3.062.696-6.225.652-9.35.696-5.048.051-10.097.108-15.152.133a18.165 18.165 0 0 0-4.334.468c-3.34.772-6.409 2.537-8.901 4.871a25.265 25.265 0 0 0-3.226 3.657c-.139.196-.272.399-.437.576.361-1.563.86-3.1 1.417-4.606 1.221-3.22 2.891-6.276 5.055-8.964.215-.259.411-.557.709-.734 1.474-.987 3.125-1.689 4.827-2.176a21.09 21.09 0 0 1 5.89-.797c6.826-.006 13.646-.051 20.472-.032.854 0 1.708.025 2.562.025a12.826 12.826 0 0 0 3.96-.746z"/><path fill="#2FCBBE" stroke="#2FCBBE" d="M131.984 81.914c.449-.164.86-.405 1.291-.601-.468.987-1.031 1.923-1.62 2.834a31.704 31.704 0 0 1-2.379 3.195c-.671.715-1.493 1.265-2.36 1.708-2.252 1.139-4.776 1.62-7.282 1.778-1.797.057-3.593.019-5.39.032-1.607.006-3.214-.013-4.821.006a25.41 25.41 0 0 0-8.509 1.607c-4.087 1.525-7.743 4.081-10.774 7.193a34.271 34.271 0 0 0-2.366 2.701c-.373.449-.69.949-1.069 1.398-.013-1.537.114-3.068.253-4.599.127-1.272.291-2.543.506-3.802.044-.266.209-.487.335-.721 1.62-2.79 3.669-5.371 6.225-7.358 2.878-2.265 6.459-3.695 10.135-3.821 2.942-.019 5.884-.063 8.825-.07 3.442-.063 6.889-.051 10.331-.12 1.525-.044 3.049-.12 4.555-.335 1.413-.196 2.805-.5 4.114-1.025z"/><path fill="#6E736B" stroke="#6E736B" d="M52.917 84.097c1.348.462 2.682.974 4.024 1.455.329.133.683.215.993.392-.595 1.031-1.436 1.904-2.404 2.594-.487.335-1 .658-1.55.873-.905-1.354-1.24-2.986-1.449-4.574-.063-.316.234-.512.386-.74z"/><path fill="#FFF" stroke="#FFF" d="M66.74 86.526c1.499-.006 3.005 0 4.504 0 .196 0 .399-.019.582.044 1.695.645 3.132 1.847 4.245 3.264a14.687 14.687 0 0 1 1.493 2.322c.139.278.297.557.392.854-1.537.702-2.866 1.828-3.865 3.182-1.145 1.531-1.911 3.309-2.442 5.137-.778 2.733-1.069 5.58-1.038 8.414a6.796 6.796 0 0 0-2.518 1.493c-1.019-1.132-2.24-2.107-3.644-2.72-.171-.07-.342-.146-.506-.221.626-.487 1.348-.835 1.999-1.284.671-.481.955-1.31 1.107-2.088.221-1.113.215-2.252.215-3.385-.006-2.107-.228-4.207-.361-6.307-.158-2.505-.247-5.023-.209-7.535.008-.379.015-.778.046-1.17z"/><path fill="#77FFBD" stroke="#77FFBD" d="M121.489 91.752a21.055 21.055 0 0 0 4.53-1.094c-.683.658-1.436 1.24-2.183 1.816a37.906 37.906 0 0 1-6.301 3.846c-3.372 1.626-7.01 2.809-10.761 3.056-.886.057-1.778.019-2.663.032-4.036-.006-8.066.013-12.102-.006.702-.721 1.499-1.348 2.29-1.974a27.447 27.447 0 0 1 5.725-3.41 24.375 24.375 0 0 1 7.332-1.936c1.48-.164 2.967-.127 4.454-.127h5.757c1.309.012 2.618-.026 3.922-.203z"/><path fill="#FFF" stroke="#FFF" d="M123.981 93.745c.569-.411 1.113-.854 1.67-1.284.399 1.588.626 3.214.829 4.833-1.265.291-2.537.62-3.72 1.177-.911.424-1.771 1.006-2.404 1.79-.607.74-1 1.632-1.265 2.55-.329 1.139-.493 2.322-.639 3.498-.215 1.803-.392 3.612-.601 5.422-1.986.784-3.846 2.024-5.086 3.789-.171.209-.278.468-.455.671-.323-.278-.595-.614-.917-.892-1.044-.943-2.227-1.74-3.536-2.265.285-.354.652-.639.981-.949.55-.493 1.12-.962 1.645-1.48.329-.329.658-.677.829-1.113.12-.297.089-.626.089-.936V99.75c2.347-.595 4.625-1.461 6.795-2.524a39.241 39.241 0 0 0 5.785-3.481zM104.673 100.482c.86-.013 1.721.038 2.581-.063-.171.424-.424.816-.576 1.253-.24.595-.386 1.227-.531 1.847-.411-.044-.816.057-1.221.082-.772.07-1.544.139-2.315.127h-3.315c-.013-1.082-.006-2.164 0-3.245 1.79-.001 3.581.005 5.377-.001z"/><path fill="#FFF" stroke="#FFF" d="M104.926 103.607c.405-.032.81-.133 1.221-.082-.297 1.404-.392 2.841-.563 4.258-.266.24-.607.38-.892.601-1.873 1.259-3.536 2.872-4.682 4.833-.278.455-.5.949-.728 1.43-.285-.297-.531-.639-.829-.93a9.419 9.419 0 0 0-3.657-2.296c.765-.93 1.658-1.746 2.556-2.543.43-.386.873-.759 1.265-1.183.348-.38.683-.841.677-1.385 0-.86-.006-1.714 0-2.575h3.315c.774.012 1.545-.058 2.317-.128z"/><path fill="#3088D4" stroke="#3088D4" d="M62.514 109.345c.133-.101.266-.278.449-.209 1.746.449 3.239 1.582 4.409 2.923-.253.361-.487.74-.709 1.126-2.315 0-4.637.013-6.953-.006.489-1.537 1.609-2.79 2.804-3.834z"/><path fill="#6E736B" stroke="#6E736B" d="M93.994 112.464c.07-.146.253-.076.373-.051 1.689.519 3.151 1.658 4.175 3.081.101.146.228.278.291.455-.101.468-.221.93-.272 1.404-2.094.038-4.188.006-6.282.013.089-1.751.754-3.447 1.715-4.902zM106.995 113.894c1.006.31 1.923.848 2.765 1.474.747.563 1.43 1.202 2.037 1.911-.19.525-.386 1.056-.487 1.607-.089.373-.114.753-.177 1.126-2.277.013-4.561.006-6.839 0 .158-2.278 1.208-4.422 2.701-6.118z"/></g></svg>