<svg xmlns="http://www.w3.org/2000/svg" width="300" height="60" viewBox="0 0 300 60"><g fill="#FFF"><path d="M43.375 9.177v5.867l-16.85-.1s-6.98 6.106-4.7 8.333c2.867 2.8 20.55 4.45 20.55 6.2s.1 11.25.1 11.25-4.45 9.377-8.8 9.25h-19v-6h17.6c2.613-2.106 4.483-4.833 3.483-9.333-.325-1.464-20.483-5.532-20.483-5.532v-9.034s4.75-11 9.25-11c3.75 0 18.85.1 18.85.1zM74.127 35.632C74.127 43.567 67.694 50 59.76 50s-14.37-6.433-14.37-14.368 6.434-14.368 14.37-14.368 14.367 6.433 14.367 14.368zM60.5 26.926c-4.78 0-8.65 3.873-8.65 8.65s3.872 8.65 8.65 8.65 8.65-3.873 8.65-8.65-3.873-8.65-8.65-8.65zM104.525 44.144v5.834H87.192s-9.13-3.74-10.167-10.4c-1.167-7.5 1.096-15.365 8.933-17.214 13.233-3.12 18.204 7.163 18.467 8.813v4.755h-5.533s-1.367-6.888-4-7.255c-1.42-.198-9.533-3.6-12.296 5.494-1.943 6.396 5.662 10.007 5.662 10.007l16.267-.033zM107.525 8.977h6v6.125h-6V8.977zm0 41h6v-28.2h-6v28.2zM138.4 24.402v-2.624h6.25v28.2H125.8s-8.525-3.626-9.15-9.85c-.592-5.9 0-8.8 0-8.8s2.328-7.55 9.275-9.05c5.16-1.112 9.3-.5 11.363.944l1.112 1.18zm.1 9.3c-.7-2.665-3.01-4.382-4.57-5.23-1.372-.75-3.385-.86-6.255-.545-1.118.123-3.926 2.314-4.65 4.65-.48 1.552-.63 4.77-.1 6.5.903 2.94 4.225 5.225 4.225 5.225h11.35v-10.6zM148.525 8.977h6.167v41h-6.167zM157.358 8.977h6.167v15.3s4.904-4.99 15.267-.733c2.333.958 5.483 3.308 6.903 7.833.24.76-.003 18.6-.003 18.6h-6.367v-16.5c-1.55-4-10.425-10.25-15.8 0v16.5h-6.167v-41zM217.152 35.61c0 7.936-6.433 14.37-14.368 14.37s-14.368-6.434-14.368-14.37 6.433-14.367 14.368-14.367 14.368 6.433 14.368 14.368zm-13.628-8.705c-4.778 0-8.65 3.873-8.65 8.65s3.873 8.65 8.65 8.65 8.65-3.873 8.65-8.65-3.872-8.65-8.65-8.65zM219.5 49.977v-27.9h26.375c4.9.775 7.5 4.4 9.75 9.275v18.625h-6v-15.25c-1.264-2.74-2.5-6.875-9-6.625v21.875H234.3l-.005-22.1-8.79.025-.005 22.075h-6zM269.65 43.977h16.75v6h-18.55s-10.35-1.5-10.35-16.12c0-1.615 1.25-10.222 9.5-11.68 5.283-.934 7.556-.486 9.375.1 1.448.466 7.775 3.45 10.025 10.825v6.875l-14.825.05-.025-6.175h8.25c-.275-2.125-4.4-6.55-8.95-5.85-2.446.376-5.45 2.94-6.325 5.855-1.65 5.495 5.125 10.12 5.125 10.12z"/></g></svg>