<svg xmlns="http://www.w3.org/2000/svg" width="400" height="100" viewBox="0 0 400 100"><path fill="#292A2C" d="M0 0h400v100H0z"/><g fill="#FFF"><path d="M139.45 37.8v5.866l-16.85-.1s-6.98 6.106-4.7 8.333c2.868 2.8 20.55 4.45 20.55 6.2s.1 11.25.1 11.25-4.45 9.376-8.8 9.25h-19v-6h17.6c2.614-2.107 4.484-4.834 3.484-9.334-.325-1.464-20.483-5.532-20.483-5.532V48.7s4.75-11 9.25-11c3.75 0 18.85.1 18.85.1zM170.203 64.254c0 7.935-6.433 14.368-14.368 14.368s-14.368-6.433-14.368-14.368 6.433-14.368 14.368-14.368 14.368 6.433 14.368 14.368zm-13.628-8.706c-4.778 0-8.65 3.873-8.65 8.65s3.873 8.65 8.65 8.65 8.65-3.873 8.65-8.65-3.872-8.65-8.65-8.65zM200.6 72.766V78.6H183.27s-9.13-3.74-10.167-10.4c-1.166-7.5 1.097-15.365 8.934-17.214 13.233-3.12 18.204 7.163 18.467 8.813v4.754h-5.532s-1.367-6.888-4-7.255c-1.42-.2-9.533-3.6-12.296 5.493-1.943 6.395 5.662 10.006 5.662 10.006l16.267-.034zM203.6 37.6h6v6.124h-6V37.6zm0 41h6V50.4h-6v28.2zM234.476 53.024V50.4h6.25v28.2h-18.85s-8.525-3.626-9.15-9.85c-.592-5.9 0-8.8 0-8.8s2.328-7.55 9.275-9.05c5.16-1.112 9.3-.5 11.364.944l1.112 1.18zm.1 9.3c-.7-2.665-3.01-4.382-4.57-5.23-1.372-.75-3.385-.86-6.255-.545-1.117.122-3.925 2.313-4.65 4.65-.48 1.55-.63 4.77-.1 6.5.904 2.938 4.226 5.224 4.226 5.224h11.35v-10.6zM244.6 37.6h6.168v41H244.6zM253.434 37.6h6.167v15.3s4.905-4.99 15.268-.734c2.333.958 5.483 3.308 6.903 7.833.24.76-.002 18.6-.002 18.6H275.4V62.1c-1.55-4-10.424-10.25-15.8 0v16.5h-6.166v-41zM313.228 64.233c0 7.935-6.433 14.368-14.368 14.368s-14.368-6.432-14.368-14.367 6.433-14.368 14.368-14.368 14.368 6.433 14.368 14.368zM299.6 55.527c-4.778 0-8.65 3.873-8.65 8.65s3.873 8.65 8.65 8.65 8.65-3.873 8.65-8.65-3.872-8.65-8.65-8.65zM315.576 78.6V50.7h26.375c4.9.774 7.5 4.4 9.75 9.274V78.6h-6V63.35c-1.263-2.74-2.5-6.876-9-6.626V78.6h-6.324l-.005-22.1-8.79.024-.004 22.075h-6zM365.726 72.6h16.75v6h-18.55s-10.35-1.5-10.35-16.12c0-1.616 1.25-10.223 9.5-11.68 5.283-.935 7.556-.487 9.375.1 1.45.465 7.776 3.45 10.026 10.824V68.6l-14.825.05-.024-6.176h8.25c-.275-2.125-4.4-6.55-8.95-5.85-2.446.376-5.45 2.94-6.325 5.855-1.65 5.494 5.126 10.12 5.126 10.12z"/></g><path fill="#2FCBBE" d="M36.428 38.3h23.526v30.325H36.43L36.427 38.3z"/><path fill="#77FFBD" d="M63.735 55.664H80.37v32.54H63.734v-32.54z"/><path fill="#3088D4" d="M16.857 68.625H32.41V38.3H16.865"/><path fill="#FFF" d="M60.075 88.202H16.977l.007-15.904h43.09M63.857 38.3H80.49v13.61H63.856V38.3zm19.49-10.528L49.634 13.665c-.653-.45-4.643-.45-5.437-.003L13.73 27.916c-.96.446-1.465 1.486-1.236 2.524.23 1.043 4.484 4.024 4.484 4.024H80.49s4.56-3.262 4.56-4.516c0-1.06-.725-1.926-1.703-2.176z"/></svg>