<svg xmlns="http://www.w3.org/2000/svg" width="240" height="240" viewBox="0 0 240 240"><path fill="#2FCBBE" d="M86.297 85.11h65.34v84.225H86.3l-.003-84.224z"/><path fill="#77FFBD" d="M162.14 133.337h46.2v90.376h-46.2v-90.376z"/><path fill="#3088D4" d="M31.94 169.337h43.2V85.11H31.96"/><path fill="#FFF" d="M151.975 223.71h-119.7l.02-44.173h119.68m10.5-94.426h46.2v37.8h-46.2v-37.8zm54.134-29.24l-93.635-39.18c-1.814-1.253-12.896-1.253-15.1-.007L23.255 56.27c-2.668 1.24-4.068 4.127-3.434 7.01.64 2.897 12.453 11.177 12.453 11.177h176.4s12.666-9.06 12.666-12.544c0-2.94-2.013-5.348-4.733-6.044h.002z"/></svg>